# xmcd
#
# Track frame offsets: 
#        150
#        19309
#        39120
#        52247
#        79525
#        97730
#        111330
#        126853
#        136403
#        156537
#        172610
#
# Disc length: 2526 seconds
#
# Revision: 0
# Processed by: cddbd v1.5.1PL0 Copyright (c) Steve Scherf et al.
# Submitted via: ExactAudioCopy v0.95a5
#
DISCID=8609dc0b
DTITLE=Trostan - Trostan Live @ Crawdaddy
DYEAR=2005
DGENRE=
TTITLE0=The Wise Maid - Eileen Curran's
TTITLE1=Sean's wake - Sunnipaeva lugu
TTITLE2=Molly Bawn
TTITLE3=Pulmamarss - Sam's life
TTITLE4=Labi lillede
TTITLE5=The Fall
TTITLE6=Breton gavotte - Galldubh's
TTITLE7=Voortants
TTITLE8=So Many Times
TTITLE9=Oh, oh, oh kui hea
TTITLE10=The Red Bee - Farewell to Erin
EXTD=
EXTT0=
EXTT1=
EXTT2=
EXTT3=
EXTT4=
EXTT5=
EXTT6=
EXTT7=
EXTT8=
EXTT9=
EXTT10=
PLAYORDER=
